<mxfile host="65bd71144e">
    <diagram id="GE4Y2J4ZaSMsB5QdDCHX" name="Page-1">
        <mxGraphModel dx="1045" dy="790" grid="1" gridSize="10" guides="1" tooltips="1" connect="1" arrows="1" fold="1" page="1" pageScale="1" pageWidth="827" pageHeight="1169" math="0" shadow="0">
            <root>
                <mxCell id="0"/>
                <mxCell id="1" parent="0"/>
                <mxCell id="2" value="START" style="strokeWidth=2;html=1;shape=mxgraph.flowchart.terminator;whiteSpace=wrap;fillColor=#d80073;fontColor=#ffffff;strokeColor=#A50040;" parent="1" vertex="1">
                    <mxGeometry x="310" y="20" width="100" height="60" as="geometry"/>
                </mxCell>
                <mxCell id="3" value="InitGame" style="rounded=1;whiteSpace=wrap;html=1;absoluteArcSize=1;arcSize=14;strokeWidth=2;" parent="1" vertex="1">
                    <mxGeometry x="310" y="130" width="100" height="100" as="geometry"/>
                </mxCell>
                <mxCell id="4" value="Choose Difficulty" style="rounded=1;whiteSpace=wrap;html=1;absoluteArcSize=1;arcSize=14;strokeWidth=2;" parent="1" vertex="1">
                    <mxGeometry x="310" y="440" width="100" height="100" as="geometry"/>
                </mxCell>
                <mxCell id="5" value="Init Game Play" style="rounded=1;whiteSpace=wrap;html=1;absoluteArcSize=1;arcSize=14;strokeWidth=2;" parent="1" vertex="1">
                    <mxGeometry x="310" y="590" width="100" height="100" as="geometry"/>
                </mxCell>
                <mxCell id="7" value="Game Running" style="rounded=1;whiteSpace=wrap;html=1;absoluteArcSize=1;arcSize=14;strokeWidth=2;" parent="1" vertex="1">
                    <mxGeometry x="310" y="740" width="100" height="100" as="geometry"/>
                </mxCell>
                <mxCell id="8" value="Game Paused" style="rounded=1;whiteSpace=wrap;html=1;absoluteArcSize=1;arcSize=14;strokeWidth=2;" parent="1" vertex="1">
                    <mxGeometry x="510" y="740" width="100" height="100" as="geometry"/>
                </mxCell>
                <mxCell id="9" value="Nico Dazed" style="rounded=1;whiteSpace=wrap;html=1;absoluteArcSize=1;arcSize=14;strokeWidth=2;" parent="1" vertex="1">
                    <mxGeometry x="120" y="550" width="100" height="100" as="geometry"/>
                </mxCell>
                <mxCell id="10" value="Game Ended" style="rounded=1;whiteSpace=wrap;html=1;absoluteArcSize=1;arcSize=14;strokeWidth=2;" parent="1" vertex="1">
                    <mxGeometry x="120" y="750" width="100" height="100" as="geometry"/>
                </mxCell>
                <mxCell id="11" value="HiScore" style="rounded=1;whiteSpace=wrap;html=1;absoluteArcSize=1;arcSize=14;strokeWidth=2;" parent="1" vertex="1">
                    <mxGeometry x="120" y="910" width="100" height="100" as="geometry"/>
                </mxCell>
                <mxCell id="12" value="Instruction" style="rounded=1;whiteSpace=wrap;html=1;absoluteArcSize=1;arcSize=14;strokeWidth=2;" parent="1" vertex="1">
                    <mxGeometry x="310" y="280" width="100" height="100" as="geometry"/>
                </mxCell>
                <mxCell id="13" value="" style="endArrow=classic;html=1;exitX=0.5;exitY=1;exitDx=0;exitDy=0;exitPerimeter=0;entryX=0.5;entryY=0;entryDx=0;entryDy=0;" parent="1" source="2" target="3" edge="1">
                    <mxGeometry width="50" height="50" relative="1" as="geometry">
                        <mxPoint x="390" y="350" as="sourcePoint"/>
                        <mxPoint x="440" y="300" as="targetPoint"/>
                    </mxGeometry>
                </mxCell>
                <mxCell id="14" value="" style="endArrow=classic;html=1;exitX=0.5;exitY=1;exitDx=0;exitDy=0;entryX=0.5;entryY=0;entryDx=0;entryDy=0;" parent="1" source="3" target="12" edge="1">
                    <mxGeometry width="50" height="50" relative="1" as="geometry">
                        <mxPoint x="480" y="310" as="sourcePoint"/>
                        <mxPoint x="530" y="260" as="targetPoint"/>
                    </mxGeometry>
                </mxCell>
                <mxCell id="15" value="" style="endArrow=classic;html=1;exitX=0.5;exitY=1;exitDx=0;exitDy=0;" parent="1" source="12" target="4" edge="1">
                    <mxGeometry width="50" height="50" relative="1" as="geometry">
                        <mxPoint x="490" y="380" as="sourcePoint"/>
                        <mxPoint x="540" y="330" as="targetPoint"/>
                    </mxGeometry>
                </mxCell>
                <mxCell id="16" value="" style="endArrow=classic;html=1;exitX=0.5;exitY=1;exitDx=0;exitDy=0;entryX=0.5;entryY=0;entryDx=0;entryDy=0;" parent="1" source="4" target="5" edge="1">
                    <mxGeometry width="50" height="50" relative="1" as="geometry">
                        <mxPoint x="510" y="640" as="sourcePoint"/>
                        <mxPoint x="560" y="590" as="targetPoint"/>
                    </mxGeometry>
                </mxCell>
                <mxCell id="17" value="" style="endArrow=classic;html=1;exitX=0.5;exitY=1;exitDx=0;exitDy=0;entryX=0.5;entryY=0;entryDx=0;entryDy=0;" parent="1" source="5" target="7" edge="1">
                    <mxGeometry width="50" height="50" relative="1" as="geometry">
                        <mxPoint x="490" y="760" as="sourcePoint"/>
                        <mxPoint x="540" y="710" as="targetPoint"/>
                    </mxGeometry>
                </mxCell>
                <mxCell id="18" value="" style="endArrow=classic;html=1;exitX=1;exitY=0.25;exitDx=0;exitDy=0;entryX=0;entryY=0.25;entryDx=0;entryDy=0;" parent="1" source="7" target="8" edge="1">
                    <mxGeometry width="50" height="50" relative="1" as="geometry">
                        <mxPoint x="390" y="770" as="sourcePoint"/>
                        <mxPoint x="440" y="720" as="targetPoint"/>
                    </mxGeometry>
                </mxCell>
                <mxCell id="19" value="" style="endArrow=classic;html=1;entryX=0.75;entryY=1;entryDx=0;entryDy=0;exitX=0;exitY=0.25;exitDx=0;exitDy=0;" parent="1" source="7" target="9" edge="1">
                    <mxGeometry width="50" height="50" relative="1" as="geometry">
                        <mxPoint x="420" y="990" as="sourcePoint"/>
                        <mxPoint x="470" y="940" as="targetPoint"/>
                    </mxGeometry>
                </mxCell>
                <mxCell id="20" value="" style="endArrow=classic;html=1;entryX=0.5;entryY=0;entryDx=0;entryDy=0;" parent="1" source="9" target="10" edge="1">
                    <mxGeometry width="50" height="50" relative="1" as="geometry">
                        <mxPoint x="10" y="670" as="sourcePoint"/>
                        <mxPoint x="60" y="620" as="targetPoint"/>
                    </mxGeometry>
                </mxCell>
                <mxCell id="21" value="" style="endArrow=classic;html=1;exitX=0.5;exitY=1;exitDx=0;exitDy=0;entryX=0.5;entryY=0;entryDx=0;entryDy=0;" parent="1" source="10" target="11" edge="1">
                    <mxGeometry width="50" height="50" relative="1" as="geometry">
                        <mxPoint x="270" y="950" as="sourcePoint"/>
                        <mxPoint x="320" y="900" as="targetPoint"/>
                    </mxGeometry>
                </mxCell>
                <mxCell id="22" value="" style="endArrow=classic;html=1;exitX=0;exitY=0.5;exitDx=0;exitDy=0;entryX=0;entryY=0.5;entryDx=0;entryDy=0;" parent="1" source="11" target="4" edge="1">
                    <mxGeometry width="50" height="50" relative="1" as="geometry">
                        <mxPoint x="280" y="1020" as="sourcePoint"/>
                        <mxPoint x="230" y="1060" as="targetPoint"/>
                        <Array as="points">
                            <mxPoint x="60" y="960"/>
                            <mxPoint x="60" y="490"/>
                        </Array>
                    </mxGeometry>
                </mxCell>
                <mxCell id="23" value="" style="rounded=1;whiteSpace=wrap;html=1;absoluteArcSize=1;arcSize=14;strokeWidth=2;" parent="1" vertex="1">
                    <mxGeometry x="600" y="330" width="100" height="100" as="geometry"/>
                </mxCell>
                <mxCell id="27" value="" style="endArrow=classic;html=1;exitX=0.5;exitY=1;exitDx=0;exitDy=0;entryX=0.5;entryY=0;entryDx=0;entryDy=0;" parent="1" source="23" target="23" edge="1">
                    <mxGeometry width="50" height="50" relative="1" as="geometry">
                        <mxPoint x="670" y="570" as="sourcePoint"/>
                        <mxPoint x="660" y="280" as="targetPoint"/>
                        <Array as="points">
                            <mxPoint x="650" y="480"/>
                            <mxPoint x="560" y="480"/>
                            <mxPoint x="560" y="280"/>
                            <mxPoint x="650" y="280"/>
                        </Array>
                    </mxGeometry>
                </mxCell>
            </root>
        </mxGraphModel>
    </diagram>
    <diagram id="ESKadSuFjRDRI6bSz5Vc" name="Page-2">
        <mxGraphModel dx="1045" dy="790" grid="1" gridSize="10" guides="1" tooltips="1" connect="1" arrows="1" fold="1" page="1" pageScale="1" pageWidth="827" pageHeight="1169" math="0" shadow="0">
            <root>
                <mxCell id="a7Zp_F2QdoAmpnDBCX7e-0"/>
                <mxCell id="a7Zp_F2QdoAmpnDBCX7e-1" parent="a7Zp_F2QdoAmpnDBCX7e-0"/>
                <mxCell id="a7Zp_F2QdoAmpnDBCX7e-2" value="Looper" style="rounded=1;whiteSpace=wrap;html=1;absoluteArcSize=1;arcSize=14;strokeWidth=2;" parent="a7Zp_F2QdoAmpnDBCX7e-1" vertex="1">
                    <mxGeometry x="340" y="340" width="100" height="100" as="geometry"/>
                </mxCell>
                <mxCell id="a7Zp_F2QdoAmpnDBCX7e-3" value="Going LEFT" style="rounded=1;whiteSpace=wrap;html=1;absoluteArcSize=1;arcSize=14;strokeWidth=2;" parent="a7Zp_F2QdoAmpnDBCX7e-1" vertex="1">
                    <mxGeometry x="120" y="180" width="100" height="100" as="geometry"/>
                </mxCell>
                <mxCell id="a7Zp_F2QdoAmpnDBCX7e-4" value="Going RIGHT" style="rounded=1;whiteSpace=wrap;html=1;absoluteArcSize=1;arcSize=14;strokeWidth=2;" parent="a7Zp_F2QdoAmpnDBCX7e-1" vertex="1">
                    <mxGeometry x="110" y="500" width="100" height="100" as="geometry"/>
                </mxCell>
                <mxCell id="a7Zp_F2QdoAmpnDBCX7e-5" value="Going UP" style="rounded=1;whiteSpace=wrap;html=1;absoluteArcSize=1;arcSize=14;strokeWidth=2;" parent="a7Zp_F2QdoAmpnDBCX7e-1" vertex="1">
                    <mxGeometry x="560" y="180" width="100" height="100" as="geometry"/>
                </mxCell>
                <mxCell id="a7Zp_F2QdoAmpnDBCX7e-6" value="Going DOWN" style="rounded=1;whiteSpace=wrap;html=1;absoluteArcSize=1;arcSize=14;strokeWidth=2;" parent="a7Zp_F2QdoAmpnDBCX7e-1" vertex="1">
                    <mxGeometry x="560" y="480" width="100" height="100" as="geometry"/>
                </mxCell>
                <mxCell id="a7Zp_F2QdoAmpnDBCX7e-7" value="" style="endArrow=classic;html=1;entryX=0.5;entryY=1;entryDx=0;entryDy=0;exitX=1;exitY=0.25;exitDx=0;exitDy=0;" parent="a7Zp_F2QdoAmpnDBCX7e-1" source="a7Zp_F2QdoAmpnDBCX7e-2" target="a7Zp_F2QdoAmpnDBCX7e-5" edge="1">
                    <mxGeometry width="50" height="50" relative="1" as="geometry">
                        <mxPoint x="100" y="410" as="sourcePoint"/>
                        <mxPoint x="150" y="360" as="targetPoint"/>
                        <Array as="points">
                            <mxPoint x="610" y="350"/>
                        </Array>
                    </mxGeometry>
                </mxCell>
                <mxCell id="a7Zp_F2QdoAmpnDBCX7e-11" value="State_UP" style="edgeLabel;html=1;align=center;verticalAlign=middle;resizable=0;points=[];" parent="a7Zp_F2QdoAmpnDBCX7e-7" vertex="1" connectable="0">
                    <mxGeometry x="-0.1001" y="-2" relative="1" as="geometry">
                        <mxPoint as="offset"/>
                    </mxGeometry>
                </mxCell>
                <mxCell id="a7Zp_F2QdoAmpnDBCX7e-8" value="" style="endArrow=classic;html=1;exitX=1;exitY=0.75;exitDx=0;exitDy=0;entryX=0.5;entryY=0;entryDx=0;entryDy=0;" parent="a7Zp_F2QdoAmpnDBCX7e-1" source="a7Zp_F2QdoAmpnDBCX7e-2" target="a7Zp_F2QdoAmpnDBCX7e-6" edge="1">
                    <mxGeometry width="50" height="50" relative="1" as="geometry">
                        <mxPoint x="500" y="450" as="sourcePoint"/>
                        <mxPoint x="550" y="400" as="targetPoint"/>
                        <Array as="points">
                            <mxPoint x="600" y="420"/>
                        </Array>
                    </mxGeometry>
                </mxCell>
                <mxCell id="a7Zp_F2QdoAmpnDBCX7e-12" value="State_DOWN" style="edgeLabel;html=1;align=center;verticalAlign=middle;resizable=0;points=[];" parent="a7Zp_F2QdoAmpnDBCX7e-8" vertex="1" connectable="0">
                    <mxGeometry x="-0.0753" y="-3" relative="1" as="geometry">
                        <mxPoint as="offset"/>
                    </mxGeometry>
                </mxCell>
                <mxCell id="a7Zp_F2QdoAmpnDBCX7e-9" value="" style="endArrow=classic;html=1;entryX=0.5;entryY=1;entryDx=0;entryDy=0;exitX=0;exitY=0.25;exitDx=0;exitDy=0;" parent="a7Zp_F2QdoAmpnDBCX7e-1" source="a7Zp_F2QdoAmpnDBCX7e-2" target="a7Zp_F2QdoAmpnDBCX7e-3" edge="1">
                    <mxGeometry width="50" height="50" relative="1" as="geometry">
                        <mxPoint x="70" y="410" as="sourcePoint"/>
                        <mxPoint x="120" y="360" as="targetPoint"/>
                        <Array as="points">
                            <mxPoint x="180" y="340"/>
                        </Array>
                    </mxGeometry>
                </mxCell>
                <mxCell id="a7Zp_F2QdoAmpnDBCX7e-13" value="State_LEFT" style="edgeLabel;html=1;align=center;verticalAlign=middle;resizable=0;points=[];" parent="a7Zp_F2QdoAmpnDBCX7e-9" vertex="1" connectable="0">
                    <mxGeometry x="-0.144" y="-1" relative="1" as="geometry">
                        <mxPoint as="offset"/>
                    </mxGeometry>
                </mxCell>
                <mxCell id="a7Zp_F2QdoAmpnDBCX7e-10" value="" style="endArrow=classic;html=1;exitX=0;exitY=0.75;exitDx=0;exitDy=0;entryX=0.5;entryY=0;entryDx=0;entryDy=0;" parent="a7Zp_F2QdoAmpnDBCX7e-1" source="a7Zp_F2QdoAmpnDBCX7e-2" target="a7Zp_F2QdoAmpnDBCX7e-4" edge="1">
                    <mxGeometry width="50" height="50" relative="1" as="geometry">
                        <mxPoint x="280" y="560" as="sourcePoint"/>
                        <mxPoint x="330" y="510" as="targetPoint"/>
                        <Array as="points">
                            <mxPoint x="180" y="450"/>
                        </Array>
                    </mxGeometry>
                </mxCell>
                <mxCell id="a7Zp_F2QdoAmpnDBCX7e-14" value="State_RIGHT" style="edgeLabel;html=1;align=center;verticalAlign=middle;resizable=0;points=[];" parent="a7Zp_F2QdoAmpnDBCX7e-10" vertex="1" connectable="0">
                    <mxGeometry x="0.0924" y="1" relative="1" as="geometry">
                        <mxPoint as="offset"/>
                    </mxGeometry>
                </mxCell>
                <mxCell id="a7Zp_F2QdoAmpnDBCX7e-15" value="" style="endArrow=classic;html=1;exitX=1;exitY=0.5;exitDx=0;exitDy=0;entryX=0;entryY=0.25;entryDx=0;entryDy=0;" parent="a7Zp_F2QdoAmpnDBCX7e-1" source="a7Zp_F2QdoAmpnDBCX7e-4" target="1g-F51oajTV1HsALFYme-0" edge="1">
                    <mxGeometry width="50" height="50" relative="1" as="geometry">
                        <mxPoint x="390" y="420" as="sourcePoint"/>
                        <mxPoint x="440" y="370" as="targetPoint"/>
                    </mxGeometry>
                </mxCell>
                <mxCell id="a7Zp_F2QdoAmpnDBCX7e-16" value="State_IDLE" style="edgeLabel;html=1;align=center;verticalAlign=middle;resizable=0;points=[];" parent="a7Zp_F2QdoAmpnDBCX7e-15" vertex="1" connectable="0">
                    <mxGeometry x="0.2894" relative="1" as="geometry">
                        <mxPoint as="offset"/>
                    </mxGeometry>
                </mxCell>
                <mxCell id="a7Zp_F2QdoAmpnDBCX7e-17" value="" style="endArrow=classic;html=1;exitX=0;exitY=0.5;exitDx=0;exitDy=0;entryX=0;entryY=0.75;entryDx=0;entryDy=0;" parent="a7Zp_F2QdoAmpnDBCX7e-1" source="a7Zp_F2QdoAmpnDBCX7e-3" edge="1" target="1g-F51oajTV1HsALFYme-0">
                    <mxGeometry width="50" height="50" relative="1" as="geometry">
                        <mxPoint x="390" y="420" as="sourcePoint"/>
                        <mxPoint x="390" y="340" as="targetPoint"/>
                        <Array as="points">
                            <mxPoint x="60" y="230"/>
                            <mxPoint x="70" y="645"/>
                        </Array>
                    </mxGeometry>
                </mxCell>
                <mxCell id="a7Zp_F2QdoAmpnDBCX7e-18" value="State_IDLE" style="edgeLabel;html=1;align=center;verticalAlign=middle;resizable=0;points=[];" parent="a7Zp_F2QdoAmpnDBCX7e-17" vertex="1" connectable="0">
                    <mxGeometry x="0.2005" y="4" relative="1" as="geometry">
                        <mxPoint x="-1" as="offset"/>
                    </mxGeometry>
                </mxCell>
                <mxCell id="a7Zp_F2QdoAmpnDBCX7e-19" value="" style="endArrow=classic;html=1;entryX=1;entryY=0.75;entryDx=0;entryDy=0;exitX=1;exitY=0.5;exitDx=0;exitDy=0;" parent="a7Zp_F2QdoAmpnDBCX7e-1" source="a7Zp_F2QdoAmpnDBCX7e-5" target="1g-F51oajTV1HsALFYme-0" edge="1">
                    <mxGeometry width="50" height="50" relative="1" as="geometry">
                        <mxPoint x="390" y="420" as="sourcePoint"/>
                        <mxPoint x="440" y="370" as="targetPoint"/>
                        <Array as="points">
                            <mxPoint x="710" y="230"/>
                            <mxPoint x="710" y="645"/>
                        </Array>
                    </mxGeometry>
                </mxCell>
                <mxCell id="a7Zp_F2QdoAmpnDBCX7e-22" value="State_IDLE" style="edgeLabel;html=1;align=center;verticalAlign=middle;resizable=0;points=[];" parent="a7Zp_F2QdoAmpnDBCX7e-19" vertex="1" connectable="0">
                    <mxGeometry x="-0.3533" y="2" relative="1" as="geometry">
                        <mxPoint as="offset"/>
                    </mxGeometry>
                </mxCell>
                <mxCell id="a7Zp_F2QdoAmpnDBCX7e-20" value="" style="endArrow=classic;html=1;exitX=0;exitY=0.5;exitDx=0;exitDy=0;" parent="a7Zp_F2QdoAmpnDBCX7e-1" source="a7Zp_F2QdoAmpnDBCX7e-6" target="1g-F51oajTV1HsALFYme-0" edge="1">
                    <mxGeometry width="50" height="50" relative="1" as="geometry">
                        <mxPoint x="390" y="420" as="sourcePoint"/>
                        <mxPoint x="440" y="370" as="targetPoint"/>
                    </mxGeometry>
                </mxCell>
                <mxCell id="a7Zp_F2QdoAmpnDBCX7e-21" value="State_IDLE" style="edgeLabel;html=1;align=center;verticalAlign=middle;resizable=0;points=[];" parent="a7Zp_F2QdoAmpnDBCX7e-20" vertex="1" connectable="0">
                    <mxGeometry x="-0.3528" relative="1" as="geometry">
                        <mxPoint as="offset"/>
                    </mxGeometry>
                </mxCell>
                <mxCell id="1g-F51oajTV1HsALFYme-0" value="IDLE&lt;br&gt;(Checks Keyboard)" style="rounded=1;whiteSpace=wrap;html=1;absoluteArcSize=1;arcSize=14;strokeWidth=2;" vertex="1" parent="a7Zp_F2QdoAmpnDBCX7e-1">
                    <mxGeometry x="340" y="570" width="100" height="100" as="geometry"/>
                </mxCell>
                <mxCell id="1g-F51oajTV1HsALFYme-1" value="" style="endArrow=classic;html=1;exitX=0.5;exitY=1;exitDx=0;exitDy=0;endFill=1;startArrow=classic;startFill=1;" edge="1" parent="a7Zp_F2QdoAmpnDBCX7e-1" source="a7Zp_F2QdoAmpnDBCX7e-2" target="1g-F51oajTV1HsALFYme-0">
                    <mxGeometry width="50" height="50" relative="1" as="geometry">
                        <mxPoint x="480" y="710" as="sourcePoint"/>
                        <mxPoint x="530" y="660" as="targetPoint"/>
                    </mxGeometry>
                </mxCell>
                <mxCell id="1g-F51oajTV1HsALFYme-3" value="INIT" style="rounded=1;whiteSpace=wrap;html=1;absoluteArcSize=1;arcSize=14;strokeWidth=2;" vertex="1" parent="a7Zp_F2QdoAmpnDBCX7e-1">
                    <mxGeometry x="340" y="150" width="100" height="100" as="geometry"/>
                </mxCell>
                <mxCell id="1g-F51oajTV1HsALFYme-4" value="" style="endArrow=classic;html=1;exitX=0.5;exitY=0;exitDx=0;exitDy=0;entryX=0.5;entryY=1;entryDx=0;entryDy=0;" edge="1" parent="a7Zp_F2QdoAmpnDBCX7e-1" source="a7Zp_F2QdoAmpnDBCX7e-2" target="1g-F51oajTV1HsALFYme-3">
                    <mxGeometry width="50" height="50" relative="1" as="geometry">
                        <mxPoint x="360" y="320" as="sourcePoint"/>
                        <mxPoint x="490" y="300" as="targetPoint"/>
                    </mxGeometry>
                </mxCell>
                <mxCell id="1g-F51oajTV1HsALFYme-5" value="" style="endArrow=classic;html=1;exitX=0.5;exitY=0;exitDx=0;exitDy=0;entryX=0.5;entryY=1;entryDx=0;entryDy=0;" edge="1" parent="a7Zp_F2QdoAmpnDBCX7e-1" source="1g-F51oajTV1HsALFYme-3" target="1g-F51oajTV1HsALFYme-0">
                    <mxGeometry width="50" height="50" relative="1" as="geometry">
                        <mxPoint x="210" y="100" as="sourcePoint"/>
                        <mxPoint x="260" y="50" as="targetPoint"/>
                        <Array as="points">
                            <mxPoint x="390" y="80"/>
                            <mxPoint x="40" y="80"/>
                            <mxPoint x="40" y="720"/>
                            <mxPoint x="390" y="710"/>
                        </Array>
                    </mxGeometry>
                </mxCell>
            </root>
        </mxGraphModel>
    </diagram>
</mxfile>